<svg width="134" height="47" viewBox="0 0 134 47" fill="none" xmlns="http://www.w3.org/2000/svg">
	<g opacity="0.22919">
		<path opacity="0.536807" fill-rule="evenodd" clip-rule="evenodd" d="M4.5 10C6.98528 10 9 7.98528 9 5.5C9 3.01472 6.98528 1 4.5 1C2.01472 1 0 3.01472 0 5.5C0 7.98528 2.01472 10 4.5 10ZM80.5 10C82.9853 10 85 7.98528 85 5.5C85 3.01472 82.9853 1 80.5 1C78.0147 1 76 3.01472 76 5.5C76 7.98528 78.0147 10 80.5 10ZM35 5.5C35 7.98528 32.9853 10 30.5 10C28.0147 10 26 7.98528 26 5.5C26 3.01472 28.0147 1 30.5 1C32.9853 1 35 3.01472 35 5.5ZM103.5 10C105.985 10 108 7.98528 108 5.5C108 3.01472 105.985 1 103.5 1C101.015 1 99 3.01472 99 5.5C99 7.98528 101.015 10 103.5 10ZM58 5.5C58 7.98528 55.9853 10 53.5 10C51.0147 10 49 7.98528 49 5.5C49 3.01472 51.0147 1 53.5 1C55.9853 1 58 3.01472 58 5.5ZM129.5 10C131.985 10 134 7.98528 134 5.5C134 3.01472 131.985 1 129.5 1C127.015 1 125 3.01472 125 5.5C125 7.98528 127.015 10 129.5 10ZM9 29.5C9 31.9853 6.98528 34 4.5 34C2.01472 34 0 31.9853 0 29.5C0 27.0147 2.01472 25 4.5 25C6.98528 25 9 27.0147 9 29.5ZM80.5 34C82.9853 34 85 31.9853 85 29.5C85 27.0147 82.9853 25 80.5 25C78.0147 25 76 27.0147 76 29.5C76 31.9853 78.0147 34 80.5 34ZM58 29.5C58 31.9853 55.9853 34 53.5 34C51.0147 34 49 31.9853 49 29.5C49 27.0147 51.0147 25 53.5 25C55.9853 25 58 27.0147 58 29.5ZM129.5 34C131.985 34 134 31.9853 134 29.5C134 27.0147 131.985 25 129.5 25C127.015 25 125 27.0147 125 29.5C125 31.9853 127.015 34 129.5 34ZM35 29.5C35 31.9853 32.9853 34 30.5 34C28.0147 34 26 31.9853 26 29.5C26 27.0147 28.0147 25 30.5 25C32.9853 25 35 27.0147 35 29.5ZM103.5 34C105.985 34 108 31.9853 108 29.5C108 27.0147 105.985 25 103.5 25C101.015 25 99 27.0147 99 29.5C99 31.9853 101.015 34 103.5 34Z" fill="white"/>
	</g>
</svg>